<?xml version="1.0" encoding="iso-8859-1"?>
<!-- Generator: Adobe Illustrator 19.0.0, SVG Export Plug-In . SVG Version: 6.00 Build 0)  -->
<svg version="1.1" id="Capa_1" xmlns="http://www.w3.org/2000/svg" xmlns:xlink="http://www.w3.org/1999/xlink" x="0px" y="0px"
	 viewBox="0 0 512 512" style="enable-background:new 0 0 512 512;" xml:space="preserve">
<path style="fill:#4BC999;" d="M390.569,472.59v31.7H121.423v-31.7c0-32.789,11.724-62.845,31.227-86.191
	c5.127-6.145,10.789-11.827,16.924-16.965h172.844c6.134,5.138,11.807,10.82,16.924,16.965
	C378.845,409.744,390.569,439.8,390.569,472.59z"/>
<path style="fill:#41B787;" d="M210.68,369.431h-41.102c-29.439,24.682-48.151,61.735-48.151,103.156v31.707h41.102v-31.707
	C162.529,431.166,181.241,394.112,210.68,369.431z"/>
<path style="fill:#EFC1AB;" d="M131.461,288.797c-17.377,0-31.464-14.087-31.464-31.464s14.087-31.464,31.464-31.464h249.08
	c17.377,0,31.464,14.087,31.464,31.464c0,17.377-14.087,31.464-31.464,31.464"/>
<path style="fill:#FCF8F2;" d="M302.367,65.825c0.771-3.401,1.182-6.936,1.182-10.573c0-26.254-21.291-47.545-47.545-47.545
	s-47.545,21.291-47.545,47.545c0,3.627,0.411,7.162,1.171,10.563"/>
<path style="fill:#E5E1DC;" d="M240.393,65.815c-0.76-3.401-1.171-6.936-1.171-10.563c0-20.87,13.459-38.59,32.163-44.986
	c-4.826-1.65-9.996-2.559-15.381-2.559c-26.254,0-47.545,21.291-47.545,47.545c0,3.627,0.411,7.162,1.171,10.563H240.393z"/>
<path style="fill:#FCF8F2;" d="M359.342,386.399l-50.668,45.592l-52.672-36.776l-52.672,36.776l-50.668-45.592h-0.01
	c5.127-6.145,10.789-11.827,16.924-16.965h172.844C348.553,374.571,354.225,380.254,359.342,386.399z"/>
<path style="fill:#FFDAC5;" d="M380.068,221.199c0.319,3.555,0.473,7.152,0.473,10.789v57.553
	c0,68.784-55.755,105.673-124.539,105.673s-124.539-36.889-124.539-105.673v-57.553c0-3.638,0.154-7.234,0.473-10.789l59.485-45.87
	l135.637,7.193L380.068,221.199z"/>
<path style="fill:#EFC1AB;" d="M167.427,289.542v-57.553c0-3.638,0.154-7.234,0.473-10.789l57.171-44.085l-33.65-1.785
	l-59.485,45.87c-0.319,3.555-0.473,7.152-0.473,10.789v57.553c0,68.784,55.755,105.673,124.539,105.673
	c6.108,0,12.11-0.297,17.982-0.874C213.722,388.407,167.427,352.219,167.427,289.542z"/>
<path style="fill:#FF525D;" d="M154.758,128.022c14.202-42.306,54.164-72.771,101.245-72.771c29.478,0,56.173,11.946,75.502,31.276
	c11.532,11.532,20.439,25.682,25.743,41.496"/>
<path style="fill:#EF4152;" d="M278.366,57.604c-7.212-1.537-14.692-2.353-22.363-2.353c-47.081,0-87.044,30.465-101.245,72.771
	h44.696C211.345,92.601,241.299,65.493,278.366,57.604z"/>
<path style="fill:#FCF8F2;" d="M385.67,222.012c-68.825-10.296-138.473-12.351-207.627-6.165
	c-17.273,1.531-34.515,3.596-51.717,6.165l8.107-74.559c1.243-11.426,10.111-20.572,21.507-22.113
	c8.405-1.141,16.821-2.137,25.247-2.99c58.2-5.878,116.802-4.881,174.868,2.99c11.396,1.541,20.263,10.687,21.507,22.113
	L385.67,222.012z"/>
<path style="fill:#E5E1DC;" d="M178.043,215.847c-17.273,1.531-34.515,3.596-51.717,6.165l8.107-74.559
	c1.243-11.426,10.111-20.572,21.507-22.113c8.405-1.141,16.821-2.137,25.247-2.99C181.188,122.35,159.65,177.006,178.043,215.847z"
	/>
<g>
	<path style="fill:#5C5E70;" d="M297.615,343.115h29.284l0,0c0-22.982-18.632-41.614-41.614-41.614h-29.284l0,0
		C256.002,324.484,274.632,343.115,297.615,343.115z"/>
	<path style="fill:#5C5E70;" d="M214.388,343.115h-29.284l0,0c0-22.982,18.632-41.614,41.614-41.614h29.284l0,0
		C256.002,324.484,237.37,343.115,214.388,343.115z"/>
</g>
<path d="M121.428,470.018c-4.256,0-7.707,3.451-7.707,7.707v26.568c0,4.256,3.451,7.707,7.707,7.707s7.707-3.451,7.707-7.707
	v-26.568C129.134,473.469,125.685,470.018,121.428,470.018z"/>
<path d="M388.098,295.764c17.993-3.533,31.612-19.419,31.612-38.431c0-17.156-11.091-31.761-26.476-37.047l-3.824-35.159
	c-0.459-4.23-4.26-7.283-8.495-6.828c-4.231,0.46-7.289,4.263-6.829,8.495l2.847,26.177c-80.301-11.093-161.567-11.093-241.868,0
	l7.035-64.682c0.864-7.944,6.981-14.24,14.877-15.31c65.707-8.91,132.338-8.911,198.046,0c7.896,1.071,14.013,7.367,14.877,15.31
	l1.46,13.427c0.46,4.231,4.259,7.288,8.495,6.828c4.231-0.46,7.289-4.263,6.829-8.495l-1.46-13.427
	c-1.447-13.303-10.714-24.143-23.203-27.843c-5.734-14.016-14.305-26.94-25.065-37.7c-7.833-7.833-16.605-14.385-26.057-19.564
	c0.235-2.078,0.356-4.17,0.356-6.263C311.255,24.786,286.469,0,256.004,0s-55.251,24.786-55.251,55.251
	c0,2.095,0.123,4.195,0.36,6.287c-22.709,12.394-40.985,32.368-51.114,57.236c-12.498,3.695-21.773,14.539-23.221,27.848
	l-8.011,73.664c-15.384,5.287-26.476,19.891-26.476,37.047c0,19.014,13.62,34.901,31.615,38.431
	c1.411,29.786,13.025,55.105,33.87,73.897c-22.551,21.517-37.469,49.823-42.318,80.637c-0.662,4.205,2.21,8.15,6.415,8.811
	c0.406,0.065,0.81,0.095,1.207,0.095c3.728,0,7.006-2.711,7.603-6.509c3.153-20.031,11.085-38.874,22.948-55.053l44.544,40.08
	c1.456,1.311,3.303,1.978,5.156,1.978c1.536,0,3.08-0.458,4.41-1.388l48.258-33.696l48.259,33.696
	c1.332,0.93,2.874,1.388,4.411,1.388c1.854,0,3.699-0.667,5.156-1.978l44.545-40.081c15.786,21.53,24.496,47.665,24.496,74.945
	v31.707c0,4.256,3.449,7.707,7.707,7.707s7.707-3.451,7.707-7.707v-31.707c0-39.11-15.956-76.118-44.058-102.92
	C375.071,350.874,386.687,325.552,388.098,295.764z M256.004,15.413c21.761,0,39.492,17.541,39.822,39.225
	c-12.576-4.657-26.011-7.093-39.822-7.093c-13.889,0-27.331,2.495-39.824,7.121C216.496,32.969,234.233,15.413,256.004,15.413z
	 M256.004,62.958c26.461,0,51.34,10.305,70.053,29.019c7.073,7.073,13.046,15.225,17.687,24.045
	c-58.303-6.847-117.22-6.846-175.523,0.004C185.105,83.751,218.683,62.958,256.004,62.958z M404.296,257.333
	c0,10.402-6.723,19.257-16.049,22.466v-44.933C397.573,238.076,404.296,246.931,404.296,257.333z M107.704,257.333
	c0-10.403,6.724-19.259,16.052-22.467v44.935C114.428,276.593,107.704,267.736,107.704,257.333z M139.169,289.543V231.99
	c0-1.351,0.042-2.69,0.087-4.026c77.531-10.521,155.959-10.52,233.49,0c0.046,1.336,0.087,2.676,0.087,4.026v57.553
	c0,30.131-11.601,55.231-33.548,72.585c-20.699,16.368-50.277,25.381-83.284,25.381s-62.584-9.014-83.283-25.381
	C150.77,344.774,139.169,319.674,139.169,289.543z M203.937,422.171l-40.445-36.391c2.109-2.246,4.301-4.424,6.58-6.523
	c17.468,11.741,39.269,19.386,63.365,22.314L203.937,422.171z M308.067,422.171l-29.501-20.599
	c24.093-2.929,45.89-10.571,63.358-22.309c2.282,2.1,4.478,4.276,6.587,6.519L308.067,422.171z"/>
<path d="M196.449,287.227c4.256,0,7.707-3.451,7.707-7.707V263.5c0-4.256-3.451-7.707-7.707-7.707s-7.707,3.451-7.707,7.707v16.021
	C188.742,283.776,192.193,287.227,196.449,287.227z"/>
<path d="M315.554,287.227c4.257,0,7.707-3.451,7.707-7.707V263.5c0-4.256-3.449-7.707-7.707-7.707s-7.707,3.451-7.707,7.707v16.021
	C307.848,283.776,311.297,287.227,315.554,287.227z"/>
<path d="M185.104,350.822h29.284c17.479,0,32.852-9.147,41.614-22.899c8.762,13.751,24.135,22.899,41.614,22.899h29.284
	c4.257,0,7.707-3.451,7.707-7.707c0-27.195-22.125-49.32-49.32-49.32h-29.284h-29.284c-27.195,0-49.32,22.125-49.32,49.32
	C177.397,347.371,180.848,350.822,185.104,350.822z M285.286,309.208c16.046,0,29.526,11.203,33.024,26.2h-20.695
	c-16.046,0-29.526-11.203-33.024-26.2H285.286z M226.717,309.208h20.694c-3.498,14.997-16.976,26.2-33.023,26.2h-20.694
	C197.192,320.411,210.671,309.208,226.717,309.208z"/>
<path d="M263.114,446.004c-2.488-6.374-11.886-6.106-14.298,0.175c-1.15,2.994-0.291,6.509,2.15,8.601
	c2.544,2.181,6.27,2.47,9.113,0.702C263.221,453.527,264.556,449.427,263.114,446.004z"/>
<path d="M263.114,476.819c-2.588-6.485-12.281-6.059-14.424,0.536c-0.994,3.061,0.021,6.505,2.568,8.491
	c2.62,2.042,6.344,2.147,9.087,0.287C263.337,484.105,264.486,480.151,263.114,476.819z"/>
<g>
</g>
<g>
</g>
<g>
</g>
<g>
</g>
<g>
</g>
<g>
</g>
<g>
</g>
<g>
</g>
<g>
</g>
<g>
</g>
<g>
</g>
<g>
</g>
<g>
</g>
<g>
</g>
<g>
</g>
</svg>
